<svg width="637" height="637" viewBox="0 0 637 637" fill="none" xmlns="http://www.w3.org/2000/svg">
<circle cx="318.5" cy="318.5" r="318" fill="#0C0C0C" stroke="#0C0C0C"/>
<g clip-path="url(#clip0_1405_17)">
<path d="M244.547 161.667C244.573 179.536 244.599 205.961 244.547 238.126C244.495 264.552 244.312 274.647 244.338 297.733C244.365 329.611 244.677 330.628 244.807 360.941C245.146 435.548 243.453 451.278 256.818 464.217C267.187 474.26 283.652 479.686 288.68 481.356C324.295 493.095 377.964 492.912 406.361 464.504C449.296 421.566 427.256 344.819 374.499 321.211C339.301 305.481 306.735 316.985 300.352 319.385C300.743 266.821 301.16 214.231 301.551 161.667C299.805 159.788 290.27 149.797 274.586 149.171C257.078 148.493 246.058 160.023 244.547 161.667Z" fill="#F7EFEF" stroke="#F7EFEF" stroke-width="0.25" stroke-miterlimit="10"/>
<path d="M380.856 420.465C393.249 399.919 386.661 373.204 366.141 360.795C345.622 348.387 318.941 354.983 306.548 375.529C294.156 396.075 300.744 422.79 321.263 435.198C341.783 447.607 368.463 441.011 380.856 420.465Z" fill="#030303" stroke="#F7EFEF" stroke-width="0.25" stroke-miterlimit="10"/>
<path d="M340.772 247.526C340.929 248.047 341.111 248.569 341.32 249.065C342.961 253.343 345.566 257.308 349.188 260.021C354.502 264.012 361.563 264.925 368.076 263.96C383.812 261.638 398.975 251.908 411.48 242.465C418.28 237.326 418.749 236.256 431.801 225.691C437.22 221.283 443.16 215.231 449.491 212.178C461.501 206.387 446.104 230.335 444.15 233.021C424.428 260.151 365.262 302.855 334.65 267.038C324.906 255.612 322.822 237.847 330.169 224.804C337.516 211.735 354.007 204.692 368.206 208.996C373.182 210.509 377.95 213.404 380.764 217.891C382.848 221.178 382.301 226.056 378.106 227.178C374.276 228.195 369.431 223.604 366.226 222.065C361.094 219.613 354.893 219.691 349.839 222.274C344.785 224.83 341.007 229.839 339.861 235.5C339.053 239.491 339.496 243.665 340.746 247.552L340.772 247.526Z" fill="#F7EFEF"/>
</g>
<defs>
<clipPath id="clip0_1405_17">
<rect width="206" height="425" fill="white" transform="translate(244 64)"/>
</clipPath>
</defs>
</svg>
