<svg width="113" height="46" viewBox="0 0 113 46" fill="none" xmlns="http://www.w3.org/2000/svg">
<rect x="0.0859375" width="112" height="45.3103" rx="22.6552" fill="#222222"/>
<ellipse cx="25" cy="22.5" rx="20" ry="19.5" fill="#F7EFEF"/>
<path d="M24.2808 11.733V9.13229C24.2808 8.90237 24.3762 8.68187 24.5459 8.51929C24.7157 8.35672 24.9459 8.26538 25.186 8.26538C25.4261 8.26538 25.6563 8.35672 25.826 8.51929C25.9958 8.68187 26.0912 8.90237 26.0912 9.13229V11.733C26.0912 11.9629 25.9958 12.1834 25.826 12.346C25.6563 12.5086 25.4261 12.5999 25.186 12.5999C24.9459 12.5999 24.7157 12.5086 24.5459 12.346C24.3762 12.1834 24.2808 11.9629 24.2808 11.733ZM25.186 14.3337C23.7538 14.3337 22.3537 14.7405 21.1629 15.5025C19.9721 16.2646 19.0439 17.3477 18.4958 18.615C17.9477 19.8822 17.8043 21.2767 18.0837 22.622C18.3632 23.9673 19.0528 25.203 20.0656 26.173C21.0783 27.1429 22.3686 27.8034 23.7733 28.071C25.178 28.3386 26.634 28.2012 27.9571 27.6763C29.2803 27.1514 30.4113 26.2625 31.207 25.122C32.0027 23.9815 32.4274 22.6407 32.4274 21.269C32.4253 19.4303 31.6617 17.6674 30.3041 16.3672C28.9465 15.0671 27.1059 14.3357 25.186 14.3337ZM17.3042 14.9471C17.474 15.1097 17.7044 15.2011 17.9446 15.2011C18.1848 15.2011 18.4152 15.1097 18.585 14.9471C18.7549 14.7844 18.8503 14.5638 18.8503 14.3337C18.8503 14.1037 18.7549 13.8831 18.585 13.7204L16.7747 11.9866C16.6048 11.8239 16.3745 11.7325 16.1343 11.7325C15.8941 11.7325 15.6637 11.8239 15.4939 11.9866C15.324 12.1492 15.2286 12.3699 15.2286 12.5999C15.2286 12.83 15.324 13.0506 15.4939 13.2133L17.3042 14.9471ZM17.3042 27.5909L15.4939 29.3247C15.324 29.4874 15.2286 29.708 15.2286 29.9381C15.2286 30.1681 15.324 30.3887 15.4939 30.5514C15.6637 30.7141 15.8941 30.8054 16.1343 30.8054C16.3745 30.8054 16.6048 30.7141 16.7747 30.5514L18.585 28.8176C18.6691 28.737 18.7358 28.6414 18.7813 28.5362C18.8269 28.4309 18.8503 28.3182 18.8503 28.2042C18.8503 28.0903 18.8269 27.9775 18.7813 27.8723C18.7358 27.7671 18.6691 27.6715 18.585 27.5909C18.5009 27.5104 18.4011 27.4465 18.2912 27.4029C18.1813 27.3593 18.0635 27.3369 17.9446 27.3369C17.8257 27.3369 17.7079 27.3593 17.598 27.4029C17.4881 27.4465 17.3883 27.5104 17.3042 27.5909ZM32.4274 15.2006C32.5463 15.2007 32.664 15.1784 32.7739 15.1349C32.8838 15.0914 32.9836 15.0275 33.0678 14.9471L34.8781 13.2133C35.048 13.0506 35.1434 12.83 35.1434 12.5999C35.1434 12.3699 35.048 12.1492 34.8781 11.9866C34.7083 11.8239 34.4779 11.7325 34.2377 11.7325C33.9975 11.7325 33.7671 11.8239 33.5973 11.9866L31.787 13.7204C31.6602 13.8416 31.5739 13.9962 31.5389 14.1644C31.5039 14.3327 31.5219 14.5071 31.5904 14.6656C31.659 14.8241 31.7751 14.9595 31.9241 15.0548C32.0731 15.15 32.2482 15.2008 32.4274 15.2006ZM33.0678 27.5909C32.8979 27.4282 32.6676 27.3369 32.4274 27.3369C32.1872 27.3369 31.9568 27.4282 31.787 27.5909C31.6171 27.7536 31.5217 27.9742 31.5217 28.2042C31.5217 28.4343 31.6171 28.6549 31.787 28.8176L33.5973 30.5514C33.6814 30.6319 33.7812 30.6958 33.8911 30.7394C34.001 30.783 34.1188 30.8054 34.2377 30.8054C34.3566 30.8054 34.4744 30.783 34.5843 30.7394C34.6942 30.6958 34.794 30.6319 34.8781 30.5514C34.9622 30.4709 35.0289 30.3752 35.0744 30.27C35.12 30.1648 35.1434 30.052 35.1434 29.9381C35.1434 29.8242 35.12 29.7114 35.0744 29.6061C35.0289 29.5009 34.9622 29.4053 34.8781 29.3247L33.0678 27.5909ZM16.1343 21.269C16.1343 21.0391 16.0389 20.8186 15.8691 20.656C15.6994 20.4934 15.4692 20.4021 15.2291 20.4021H12.5136C12.2735 20.4021 12.0433 20.4934 11.8735 20.656C11.7038 20.8186 11.6084 21.0391 11.6084 21.269C11.6084 21.4989 11.7038 21.7194 11.8735 21.882C12.0433 22.0446 12.2735 22.1359 12.5136 22.1359H15.2291C15.4692 22.1359 15.6994 22.0446 15.8691 21.882C16.0389 21.7194 16.1343 21.4989 16.1343 21.269ZM25.186 29.9381C24.9459 29.9381 24.7157 30.0294 24.5459 30.192C24.3762 30.3545 24.2808 30.575 24.2808 30.805V33.4057C24.2808 33.6356 24.3762 33.8561 24.5459 34.0187C24.7157 34.1813 24.9459 34.2726 25.186 34.2726C25.4261 34.2726 25.6563 34.1813 25.826 34.0187C25.9958 33.8561 26.0912 33.6356 26.0912 33.4057V30.805C26.0912 30.575 25.9958 30.3545 25.826 30.192C25.6563 30.0294 25.4261 29.9381 25.186 29.9381ZM37.8584 20.4021H35.1429C34.9028 20.4021 34.6726 20.4934 34.5028 20.656C34.3331 20.8186 34.2377 21.0391 34.2377 21.269C34.2377 21.4989 34.3331 21.7194 34.5028 21.882C34.6726 22.0446 34.9028 22.1359 35.1429 22.1359H37.8584C38.0985 22.1359 38.3287 22.0446 38.4985 21.882C38.6682 21.7194 38.7636 21.4989 38.7636 21.269C38.7636 21.0391 38.6682 20.8186 38.4985 20.656C38.3287 20.4934 38.0985 20.4021 37.8584 20.4021Z" fill="#222222"/>
<path d="M100.651 24.2773C99.92 26.5626 98.4551 28.569 96.4646 30.0108C94.717 31.2705 92.6374 32.0387 90.4592 32.2294C88.2811 32.42 86.0905 32.0255 84.1335 31.09C82.1765 30.1545 80.5304 28.7152 79.3801 26.9335C78.2297 25.1519 77.6206 23.0984 77.6211 21.0036C77.6134 18.5586 78.4433 16.1786 79.9836 14.2287C81.4891 12.3224 83.584 10.9194 85.9702 10.2193C86.1275 10.1729 86.295 10.1685 86.4547 10.2065C86.6144 10.2444 86.7603 10.3234 86.8767 10.4348C86.993 10.5463 87.0755 10.686 87.1151 10.8389C87.1548 10.9919 87.1501 11.1523 87.1017 11.3029C86.5799 12.9559 86.5362 14.7136 86.9751 16.3885C87.4141 18.0634 88.3193 19.5929 89.5943 20.814C90.8693 22.0351 92.4663 22.9021 94.2151 23.3225C95.964 23.7429 97.7992 23.701 99.5252 23.2012C99.6825 23.1549 99.85 23.1504 100.01 23.1884C100.169 23.2264 100.315 23.3053 100.432 23.4168C100.548 23.5282 100.63 23.6679 100.67 23.8209C100.71 23.9738 100.705 24.1342 100.657 24.2849L100.651 24.2773Z" fill="#F7EFEF"/>
</svg>
